# xmcd
#
# Track frame offsets:
#	150
#	19674
#	34337
#	50505
#	63500
#	77905
#	91792
#	113152
#	124946
#	145450
#	155899
#	173475
#	183103
#	195926
#	206418
#	221764
#	235195
#	248409
#	267057
#	286346
#
# Disc length: 4011 seconds
#
# Revision: 1
# Processed by: cddbd v1.5.1PL0 Copyright (c) Steve Scherf et al.
# Submitted via: audiograbber 1.83.01
#
DISCID=150fa914
DTITLE=The_Nashville_Session_Singers - Country_Line_Dance_20_Greatest_Hits_Vol.
DTITLE=2_1997
DYEAR=1997
DGENRE=Country
TTITLE0=You Vin My Love
TTITLE1=Check Yes Or No
TTITLE2=My Maria
TTITLE3=Blue
TTITLE4=Poor, Poor Pitiful
TTITLE5=Daddy's Money
TTITLE6=Strawberry Wine
TTITLE7=Little Bitty
TTITLE8=If You're Not In Love I'm Outta Here!
TTITLE9=Against The Grain
TTITLE10=Don't Even Know Your Name
TTITLE11=The Big One
TTITLE12=Papa Loved Mama
TTITLE13=Solid
TTITLE14=Wild Wild West
TTITLE15=The Fear Of Being Alone
TTITLE16=She's Every Woman
TTITLE17=Any Man Of Mine
TTITLE18=You're Gonna Miss Me When I'm Gone
TTITLE19=Everybody's Line Dancin'
EXTD=
EXTT0=
EXTT1=
EXTT2=
EXTT3=
EXTT4=
EXTT5=
EXTT6=
EXTT7=
EXTT8=
EXTT9=
EXTT10=
EXTT11=
EXTT12=
EXTT13=
EXTT14=
EXTT15=
EXTT16=
EXTT17=
EXTT18=
EXTT19=
PLAYORDER=
